<svg width="31" height="31" viewBox="0 0 31 31" fill="none" xmlns="http://www.w3.org/2000/svg">
<g clip-path="url(#clip0_10_195)">
<path d="M30.5156 15.5C30.5156 23.7929 23.7929 30.5156 15.5 30.5156C7.20708 30.5156 0.484375 23.7929 0.484375 15.5C0.484375 7.20708 7.20708 0.484375 15.5 0.484375C23.7929 0.484375 30.5156 7.20708 30.5156 15.5ZM13.7632 23.4507L24.9038 12.31C25.2821 11.9317 25.2821 11.3183 24.9038 10.94L23.5338 9.57004C23.1555 9.19168 22.5421 9.19168 22.1637 9.57004L13.0781 18.6556L8.83627 14.4137C8.45797 14.0354 7.84457 14.0354 7.46622 14.4137L6.09622 15.7837C5.71793 16.162 5.71793 16.7754 6.09622 17.1537L12.3931 23.4506C12.7715 23.8289 13.3848 23.8289 13.7632 23.4507Z" fill="#1ED760"/>
</g>
<defs>
<clipPath id="clip0_10_195">
<rect width="31" height="31" fill="white"/>
</clipPath>
</defs>
</svg>
