<svg width="68" height="42" viewBox="0 0 68 42" fill="none" xmlns="http://www.w3.org/2000/svg">
<path d="M0.878906 31.8691L7.91016 29.4766C8.75651 31.0391 10.0423 32.3411 11.7676 33.3828C13.5254 34.4245 15.3483 34.9453 17.2363 34.9453C19.0918 34.9453 20.5729 34.5059 21.6797 33.627C22.819 32.7155 23.3887 31.5762 23.3887 30.209C23.3887 28.6465 22.7539 27.4095 21.4844 26.498C20.2148 25.554 18.3431 24.6589 15.8691 23.8125C12.028 22.543 9.45638 21.5664 8.1543 20.8828C4.2806 18.7669 2.34375 15.6419 2.34375 11.5078C2.34375 8.1224 3.69466 5.38802 6.39648 3.30469C9.09831 1.1888 12.5651 0.130859 16.7969 0.130859C20.4427 0.130859 23.5189 0.99349 26.0254 2.71875C28.5645 4.41146 30.4362 6.60872 31.6406 9.31055L24.8047 11.5566C22.6562 8.5944 19.9707 7.11328 16.748 7.11328C14.8926 7.11328 13.4277 7.52018 12.3535 8.33398C11.2793 9.11523 10.7422 10.1569 10.7422 11.459C10.7422 12.0124 10.8236 12.5169 10.9863 12.9727C11.1491 13.4284 11.4583 13.8516 11.9141 14.2422C12.4023 14.6328 12.8092 14.9583 13.1348 15.2188C13.4928 15.4792 14.0788 15.7721 14.8926 16.0977C15.7389 16.4232 16.3574 16.6673 16.748 16.8301C17.1712 16.9603 17.9199 17.1882 18.9941 17.5137C20.1009 17.8392 20.8333 18.0671 21.1914 18.1973C22.6562 18.6855 23.9583 19.2227 25.0977 19.8086C26.2695 20.3945 27.3926 21.1432 28.4668 22.0547C29.541 22.9336 30.3711 24.0404 30.957 25.375C31.543 26.7096 31.8359 28.207 31.8359 29.8672C31.8359 33.6758 30.4199 36.638 27.5879 38.7539C24.7884 40.8372 21.2728 41.8789 17.041 41.8789C13.3626 41.8789 10.0749 40.9837 7.17773 39.1934C4.2806 37.403 2.18099 34.9616 0.878906 31.8691ZM36.9141 41V1.00977L52.3926 1.00977C56.8848 1.00977 60.2214 1.97005 62.4023 3.89063C64.5833 5.77865 65.6738 8.39909 65.6738 11.752C65.6738 13.5423 65.2507 15.1374 64.4043 16.5371C63.5905 17.9043 62.5163 18.9785 61.1816 19.7598C62.679 20.3783 64.0299 21.5013 65.2344 23.1289C66.4388 24.724 67.041 26.7096 67.041 29.0859C67.041 32.569 65.918 35.4336 63.6719 37.6797C61.4258 39.8932 58.3171 41 54.3457 41H36.9141ZM45.0195 34.0664H53.1738C54.6061 34.0664 55.8594 33.6432 56.9336 32.7969C58.0404 31.9505 58.5938 30.7135 58.5938 29.0859C58.5938 27.5885 58.1055 26.3516 57.1289 25.375C56.1849 24.3659 54.8014 23.8613 52.9785 23.8613H45.0195V34.0664ZM45.0195 17.0254H51.7578C53.418 17.0254 54.7363 16.6348 55.7129 15.8535C56.722 15.0723 57.2266 13.9167 57.2266 12.3867C57.2266 9.45703 55.4525 7.99219 51.9043 7.99219L45.0195 7.99219V17.0254Z" fill="white"/>
</svg>
