<svg width="266" height="63" viewBox="0 0 266 63" fill="none" xmlns="http://www.w3.org/2000/svg">
<path d="M29.5 42.65C29.5 44.3833 29.1833 45.9333 28.55 47.3C27.9167 48.6333 27.0333 49.7667 25.9 50.7C24.7667 51.6 23.4167 52.3 21.85 52.8C20.2833 53.2667 18.55 53.5 16.65 53.5C13.9833 53.5 11.3667 53.05 8.8 52.15C6.23333 51.2167 3.9 49.8 1.8 47.9L6.35 42.45C7.95 43.75 9.58333 44.7833 11.25 45.55C12.95 46.3167 14.8 46.7 16.8 46.7C18.4 46.7 19.6333 46.4167 20.5 45.85C21.4 45.25 21.85 44.4333 21.85 43.4V43.3C21.85 42.8 21.75 42.3667 21.55 42C21.3833 41.6 21.0333 41.2333 20.5 40.9C20 40.5667 19.2833 40.2333 18.35 39.9C17.45 39.5667 16.2667 39.2167 14.8 38.85C13.0333 38.4167 11.4333 37.9333 10 37.4C8.56667 36.8667 7.35 36.2167 6.35 35.45C5.35 34.65 4.56667 33.6666 4 32.5C3.46667 31.3333 3.2 29.8833 3.2 28.15V28.05C3.2 26.45 3.5 25.0166 4.1 23.75C4.7 22.45 5.53333 21.3333 6.6 20.4C7.7 19.4667 9 18.75 10.5 18.25C12 17.75 13.65 17.5 15.45 17.5C18.0167 17.5 20.3667 17.8833 22.5 18.65C24.6667 19.4166 26.65 20.5166 28.45 21.95L24.45 27.75C22.8833 26.6833 21.35 25.85 19.85 25.25C18.35 24.6167 16.85 24.3 15.35 24.3C13.85 24.3 12.7167 24.6 11.95 25.2C11.2167 25.7666 10.85 26.4833 10.85 27.35V27.45C10.85 28.0167 10.95 28.5167 11.15 28.95C11.3833 29.35 11.7833 29.7167 12.35 30.05C12.9167 30.3833 13.6833 30.7 14.65 31C15.65 31.3 16.9 31.65 18.4 32.05C20.1667 32.5166 21.7333 33.05 23.1 33.65C24.5 34.2167 25.6667 34.9167 26.6 35.75C27.5667 36.55 28.2833 37.5 28.75 38.6C29.25 39.7 29.5 41.0167 29.5 42.55V42.65ZM63.5324 39.65C63.5324 41.8833 63.1824 43.8667 62.4824 45.6C61.8158 47.3 60.9158 48.75 59.7824 49.95C58.6824 51.1167 57.3991 52 55.9324 52.6C54.4658 53.2 52.9324 53.5 51.3324 53.5C49.2991 53.5 47.6158 53.1 46.2824 52.3C44.9824 51.5 43.8824 50.5667 42.9824 49.5V61H35.3824V26.2H42.9824V30.05C43.9158 28.7833 45.0324 27.75 46.3324 26.95C47.6658 26.1167 49.3324 25.7 51.3324 25.7C52.8991 25.7 54.4158 26 55.8824 26.6C57.3491 27.2 58.6491 28.1 59.7824 29.3C60.9158 30.4667 61.8158 31.9167 62.4824 33.65C63.1824 35.35 63.5324 37.3167 63.5324 39.55V39.65ZM55.9324 39.65V39.55C55.9324 38.45 55.7491 37.45 55.3824 36.55C55.0491 35.6167 54.5824 34.8333 53.9824 34.2C53.3824 33.5333 52.6824 33.0333 51.8824 32.7C51.1158 32.3333 50.2824 32.15 49.3824 32.15C48.4824 32.15 47.6324 32.3333 46.8324 32.7C46.0658 33.0333 45.3824 33.5333 44.7824 34.2C44.2158 34.8333 43.7491 35.6167 43.3824 36.55C43.0491 37.45 42.8824 38.45 42.8824 39.55V39.65C42.8824 40.75 43.0491 41.7667 43.3824 42.7C43.7491 43.6 44.2158 44.3833 44.7824 45.05C45.3824 45.6833 46.0658 46.1833 46.8324 46.55C47.6324 46.8833 48.4824 47.05 49.3824 47.05C50.2824 47.05 51.1158 46.8833 51.8824 46.55C52.6824 46.1833 53.3824 45.6833 53.9824 45.05C54.5824 44.3833 55.0491 43.6 55.3824 42.7C55.7491 41.8 55.9324 40.7833 55.9324 39.65ZM96.8227 39.65C96.8227 41.5833 96.456 43.4 95.7227 45.1C94.9893 46.7667 93.9727 48.2333 92.6727 49.5C91.3727 50.7667 89.8393 51.7667 88.0727 52.5C86.306 53.2333 84.3727 53.6 82.2727 53.6C80.206 53.6 78.2893 53.25 76.5227 52.55C74.756 51.8167 73.2227 50.8333 71.9227 49.6C70.656 48.3333 69.656 46.8667 68.9227 45.2C68.1893 43.5 67.8227 41.6833 67.8227 39.75V39.65C67.8227 37.7167 68.1893 35.9167 68.9227 34.25C69.656 32.55 70.6727 31.0667 71.9727 29.8C73.2727 28.5333 74.806 27.5333 76.5727 26.8C78.3393 26.0667 80.2727 25.7 82.3727 25.7C84.4393 25.7 86.356 26.0667 88.1227 26.8C89.8893 27.5 91.406 28.4833 92.6727 29.75C93.9727 30.9833 94.9893 32.45 95.7227 34.15C96.456 35.8167 96.8227 37.6167 96.8227 39.55V39.65ZM89.3227 39.75V39.65C89.3227 38.65 89.156 37.7167 88.8227 36.85C88.4893 35.95 88.006 35.1667 87.3727 34.5C86.7393 33.8 85.9893 33.25 85.1227 32.85C84.256 32.45 83.306 32.25 82.2727 32.25C81.1727 32.25 80.1893 32.45 79.3227 32.85C78.4893 33.2167 77.7727 33.7333 77.1727 34.4C76.5727 35.0667 76.106 35.85 75.7727 36.75C75.4727 37.6167 75.3227 38.55 75.3227 39.55V39.65C75.3227 40.65 75.4893 41.6 75.8227 42.5C76.156 43.3667 76.6393 44.15 77.2727 44.85C77.906 45.5167 78.6393 46.05 79.4727 46.45C80.3393 46.85 81.306 47.05 82.3727 47.05C83.4727 47.05 84.4393 46.8667 85.2727 46.5C86.1393 46.1 86.8727 45.5667 87.4727 44.9C88.0727 44.2333 88.5227 43.4667 88.8227 42.6C89.156 41.7 89.3227 40.75 89.3227 39.75ZM117.376 51.9C116.576 52.3667 115.692 52.7333 114.726 53C113.759 53.3 112.642 53.45 111.376 53.45C110.209 53.45 109.142 53.3167 108.176 53.05C107.242 52.8167 106.426 52.3833 105.726 51.75C105.059 51.1167 104.526 50.3 104.126 49.3C103.759 48.2667 103.576 46.9667 103.576 45.4V32.7H100.376V26.2H103.576V19.35H111.176V26.2H117.476V32.7H111.176V44.15C111.176 45.8833 111.992 46.75 113.626 46.75C114.959 46.75 116.209 46.4333 117.376 45.8V51.9ZM131.228 23.25H123.228V16.5H131.228V23.25ZM131.028 53H123.428V26.2H131.028V53ZM168.716 43.4C168.716 45 168.399 46.4 167.766 47.6C167.166 48.8 166.282 49.8 165.116 50.6C163.982 51.4 162.599 52 160.966 52.4C159.366 52.8 157.582 53 155.616 53H138.966V18H155.216C158.816 18 161.632 18.8166 163.666 20.45C165.732 22.0833 166.766 24.2833 166.766 27.05V27.15C166.766 28.15 166.632 29.0333 166.366 29.8C166.132 30.5667 165.799 31.2667 165.366 31.9C164.966 32.5 164.482 33.0333 163.916 33.5C163.382 33.9667 162.799 34.3667 162.166 34.7C164.199 35.4667 165.799 36.5167 166.966 37.85C168.132 39.15 168.716 40.9667 168.716 43.3V43.4ZM159.116 28.45V28.35C159.116 27.1833 158.682 26.3 157.816 25.7C156.949 25.0667 155.699 24.75 154.066 24.75H146.466V32.15H153.566C155.266 32.15 156.616 31.8667 157.616 31.3C158.616 30.7 159.116 29.75 159.116 28.45ZM161.066 42.45V42.35C161.066 41.1833 160.616 40.2667 159.716 39.6C158.816 38.9 157.366 38.55 155.366 38.55H146.466V46.25H155.616C157.316 46.25 158.649 45.95 159.616 45.35C160.582 44.7167 161.066 43.75 161.066 42.45ZM182.2 53H174.6V16.5H182.2V53ZM228.878 53H221.278V38.05C221.278 36.25 220.878 34.9 220.078 34C219.278 33.0667 218.144 32.6 216.678 32.6C215.211 32.6 214.044 33.0667 213.178 34C212.344 34.9 211.928 36.25 211.928 38.05V53H204.328V26.2H211.928V30C212.361 29.4333 212.828 28.9 213.328 28.4C213.861 27.8667 214.444 27.4 215.078 27C215.711 26.6 216.411 26.2833 217.178 26.05C217.944 25.8167 218.811 25.7 219.778 25.7C222.678 25.7 224.911 26.5833 226.478 28.35C228.078 30.1166 228.878 32.55 228.878 35.65V53ZM262.43 53H254.83V49.15C253.897 50.4167 252.763 51.4667 251.43 52.3C250.13 53.1 248.48 53.5 246.48 53.5C244.913 53.5 243.397 53.2 241.93 52.6C240.463 52 239.163 51.1167 238.03 49.95C236.897 48.75 235.98 47.3 235.28 45.6C234.613 43.8667 234.28 41.8833 234.28 39.65V39.55C234.28 37.3167 234.613 35.35 235.28 33.65C235.98 31.9167 236.88 30.4667 237.98 29.3C239.113 28.1 240.413 27.2 241.88 26.6C243.347 26 244.88 25.7 246.48 25.7C248.513 25.7 250.18 26.1 251.48 26.9C252.813 27.7 253.93 28.6333 254.83 29.7V16.5H262.43V53ZM254.93 39.65V39.55C254.93 38.45 254.747 37.45 254.38 36.55C254.047 35.6167 253.58 34.8333 252.98 34.2C252.413 33.5333 251.73 33.0333 250.93 32.7C250.163 32.3333 249.33 32.15 248.43 32.15C247.53 32.15 246.68 32.3333 245.88 32.7C245.113 33.0333 244.43 33.5333 243.83 34.2C243.23 34.8333 242.747 35.6 242.38 36.5C242.047 37.4 241.88 38.4167 241.88 39.55V39.65C241.88 40.75 242.047 41.7667 242.38 42.7C242.747 43.6 243.23 44.3833 243.83 45.05C244.43 45.6833 245.113 46.1833 245.88 46.55C246.68 46.8833 247.53 47.05 248.43 47.05C249.33 47.05 250.163 46.8833 250.93 46.55C251.73 46.1833 252.413 45.6833 252.98 45.05C253.58 44.3833 254.047 43.6 254.38 42.7C254.747 41.7667 254.93 40.75 254.93 39.65Z" fill="white"/>
<path d="M185.717 19.7115C186.723 20.4735 192.048 24.1791 197.404 21.7267C202.367 19.4828 203.41 13.8489 203.625 12.1551C203.646 11.9836 203.622 11.8095 203.555 11.6503C203.488 11.491 203.38 11.3523 203.242 11.248C202.253 10.5003 197.125 6.88245 191.782 9.13713L191.555 9.23282C186.592 11.4767 185.54 17.1144 185.334 18.8044C185.313 18.9759 185.337 19.15 185.404 19.3092C185.472 19.4685 185.579 19.6072 185.717 19.7115ZM192.366 11.028C196.238 9.28748 200.2 11.5593 201.538 12.5016C201.247 14.345 200.138 18.3287 196.548 19.9506C192.698 21.6926 188.724 19.4155 187.377 18.477C187.695 16.6222 188.776 12.65 192.366 11.028Z" fill="#568A6B"/>
<path d="M195.82 18.6549C196.448 18.3899 196.983 17.9447 197.358 17.3754C197.733 16.8062 197.93 16.1386 197.926 15.457C197.921 14.7754 197.715 14.1105 197.332 13.5463C196.95 12.982 196.409 12.5439 195.778 12.2872C195.146 12.0305 194.453 11.9669 193.785 12.1042C193.118 12.2416 192.506 12.5739 192.027 13.059C191.548 13.5442 191.224 14.1604 191.095 14.8297C190.967 15.4991 191.04 16.1916 191.305 16.8195C191.66 17.6616 192.335 18.3281 193.182 18.6723C194.029 19.0165 194.977 19.0102 195.82 18.6549ZM193.906 14.119C194.175 14.0054 194.471 13.9742 194.758 14.0293C195.045 14.0844 195.309 14.2233 195.517 14.4285C195.725 14.6337 195.868 14.8959 195.926 15.1821C195.985 15.4682 195.958 15.7653 195.848 16.0359C195.738 16.3066 195.55 16.5385 195.308 16.7024C195.067 16.8662 194.782 16.9548 194.489 16.9567C194.197 16.9586 193.911 16.8739 193.667 16.7132C193.423 16.5525 193.233 16.3231 193.119 16.0539C192.967 15.693 192.964 15.2864 193.112 14.9236C193.259 14.5607 193.545 14.2713 193.906 14.119Z" fill="#568A6B"/>
<rect x="189" y="26" width="7" height="27" fill="white"/>
</svg>
