<svg width="286" height="42" viewBox="0 0 286 42" fill="none" xmlns="http://www.w3.org/2000/svg">
<g clip-path="url(#clip0_101_265)">
<path d="M36.5 21C36.5 29.5604 29.5604 36.5 21 36.5C12.4396 36.5 5.5 29.5604 5.5 21C5.5 12.4396 12.4396 5.5 21 5.5C29.5604 5.5 36.5 12.4396 36.5 21ZM19.2071 29.2071L30.7071 17.7071C31.0976 17.3166 31.0976 16.6834 30.7071 16.2929L29.2929 14.8787C28.9024 14.4882 28.2692 14.4882 27.8787 14.8787L18.5 24.2574L14.1213 19.8787C13.7308 19.4882 13.0976 19.4882 12.7071 19.8787L11.2929 21.2929C10.9024 21.6834 10.9024 22.3166 11.2929 22.7071L17.7929 29.2071C18.1834 29.5976 18.8166 29.5976 19.2071 29.2071Z" fill="#568A6B"/>
</g>
<circle cx="21" cy="21" r="19.5" stroke="white" stroke-width="3"/>
<circle cx="143" cy="21" r="19.5" stroke="white" stroke-width="3"/>
<circle cx="265" cy="21" r="19.5" stroke="white" stroke-width="3"/>
<defs>
<clipPath id="clip0_101_265">
<rect width="32" height="32" fill="white" transform="translate(5 5)"/>
</clipPath>
</defs>
</svg>
