<svg width="286" height="42" viewBox="0 0 286 42" fill="none" xmlns="http://www.w3.org/2000/svg">
<circle cx="21" cy="21" r="16" fill="#EF5757"/>
<path d="M14.2903 14.2903L28.7419 28.7419" stroke="#141414" stroke-width="3" stroke-linecap="round"/>
<path d="M14.2903 28.7417L28.7419 14.2901" stroke="#141414" stroke-width="3" stroke-linecap="round"/>
<g clip-path="url(#clip0_101_265)">
<path d="M158.5 21C158.5 29.5604 151.56 36.5 143 36.5C134.44 36.5 127.5 29.5604 127.5 21C127.5 12.4396 134.44 5.5 143 5.5C151.56 5.5 158.5 12.4396 158.5 21ZM141.207 29.2071L152.707 17.7071C153.098 17.3166 153.098 16.6834 152.707 16.2929L151.293 14.8787C150.902 14.4882 150.269 14.4882 149.879 14.8787L140.5 24.2574L136.121 19.8787C135.731 19.4882 135.098 19.4882 134.707 19.8787L133.293 21.2929C132.902 21.6834 132.902 22.3166 133.293 22.7071L139.793 29.2071C140.183 29.5976 140.817 29.5976 141.207 29.2071Z" fill="#568A6B"/>
</g>
<circle cx="21" cy="21" r="19.5" stroke="white" stroke-width="3"/>
<circle cx="143" cy="21" r="19.5" stroke="white" stroke-width="3"/>
<circle cx="265" cy="21" r="19.5" stroke="white" stroke-width="3"/>
<defs>
<clipPath id="clip0_101_265">
<rect width="32" height="32" fill="white" transform="translate(127 5)"/>
</clipPath>
</defs>
</svg>
