<svg width="286" height="42" viewBox="0 0 286 42" fill="none" xmlns="http://www.w3.org/2000/svg">
<circle cx="21" cy="21" r="16" fill="#EF5757"/>
<path d="M14.2903 14.2903L28.7419 28.7419" stroke="#141414" stroke-width="3" stroke-linecap="round"/>
<path d="M14.2903 28.7417L28.7419 14.2901" stroke="#141414" stroke-width="3" stroke-linecap="round"/>
<circle cx="143" cy="21" r="16" fill="#EF5757"/>
<path d="M136.29 14.2903L150.742 28.7419" stroke="#141414" stroke-width="3" stroke-linecap="round"/>
<path d="M136.29 28.7417L150.742 14.2901" stroke="#141414" stroke-width="3" stroke-linecap="round"/>
<g clip-path="url(#clip0_101_265)">
<path d="M280.5 21C280.5 29.5604 273.56 36.5 265 36.5C256.44 36.5 249.5 29.5604 249.5 21C249.5 12.4396 256.44 5.5 265 5.5C273.56 5.5 280.5 12.4396 280.5 21ZM263.207 29.2071L274.707 17.7071C275.098 17.3166 275.098 16.6834 274.707 16.2929L273.293 14.8787C272.902 14.4882 272.269 14.4882 271.879 14.8787L262.5 24.2574L258.121 19.8787C257.731 19.4882 257.098 19.4882 256.707 19.8787L255.293 21.2929C254.902 21.6834 254.902 22.3166 255.293 22.7071L261.793 29.2071C262.183 29.5976 262.817 29.5976 263.207 29.2071Z" fill="#568A6B"/>
</g>
<circle cx="21" cy="21" r="19.5" stroke="white" stroke-width="3"/>
<circle cx="143" cy="21" r="19.5" stroke="white" stroke-width="3"/>
<circle cx="265" cy="21" r="19.5" stroke="white" stroke-width="3"/>
<defs>
<clipPath id="clip0_101_265">
<rect width="32" height="32" fill="white" transform="translate(249 5)"/>
</clipPath>
</defs>
</svg>
